<svg width="28" height="28" viewBox="0 0 28 28" fill="none" xmlns="http://www.w3.org/2000/svg">
    <path fill-rule="evenodd" clip-rule="evenodd" d="M14.0001 0.666504C6.62675 0.666504 0.666748 6.6265 0.666748 13.9998C0.666748 21.3732 6.62675 27.3332 14.0001 27.3332C21.3734 27.3332 27.3334 21.3732 27.3334 13.9998C27.3334 6.6265 21.3734 0.666504 14.0001 0.666504ZM14.0001 24.6665C8.12008 24.6665 3.33341 19.8798 3.33341 13.9998C3.33341 8.11984 8.12008 3.33317 14.0001 3.33317C19.8801 3.33317 24.6667 8.11984 24.6667 13.9998C24.6667 19.8798 19.8801 24.6665 14.0001 24.6665ZM14.0001 12.1198L18.7867 7.33317L20.6667 9.21317L15.8801 13.9998L20.6667 18.7865L18.7867 20.6665L14.0001 15.8798L9.21342 20.6665L7.33342 18.7865L12.1201 13.9998L7.33342 9.21317L9.21342 7.33317L14.0001 12.1198Z" fill="#3C3C43" fill-opacity="0.6"/>
</svg>
